<mxfile host="app.diagrams.net" modified="2021-02-25T06:22:14.945Z" agent="5.0 (Macintosh; Intel Mac OS X 10_13_6) AppleWebKit/537.36 (KHTML, like Gecko) Chrome/88.0.4324.192 Safari/537.36" etag="g6RyE30JHw7nDUbRX-Z2" version="14.4.3" type="github">
  <diagram name="Page-1" id="dd472eb7-4b8b-5cd9-a60b-b15522922e76">
    <mxGraphModel dx="1186" dy="796" grid="1" gridSize="10" guides="1" tooltips="1" connect="1" arrows="1" fold="1" page="1" pageScale="1" pageWidth="1100" pageHeight="850" background="#ffffff" math="0" shadow="0">
      <root>
        <mxCell id="0" />
        <mxCell id="1" parent="0" />
        <mxCell id="64iI4LIjdfQE9EuhD1sA-2" style="edgeStyle=orthogonalEdgeStyle;shape=flexArrow;rounded=0;orthogonalLoop=1;jettySize=auto;html=1;exitX=1;exitY=0.5;exitDx=0;exitDy=0;entryX=0.5;entryY=0;entryDx=0;entryDy=0;" edge="1" parent="1" source="45236fa5f4b8e91a-1" target="45236fa5f4b8e91a-6">
          <mxGeometry relative="1" as="geometry" />
        </mxCell>
        <mxCell id="45236fa5f4b8e91a-1" value="支付订单域：&lt;br&gt;&lt;font style=&quot;font-size: 15px&quot; color=&quot;#000000&quot;&gt;用户基于待付订单完成支付（用户完成付款承诺）；&lt;/font&gt;" style="ellipse;whiteSpace=wrap;html=1;rounded=0;shadow=0;dashed=0;comic=0;fontFamily=Verdana;fontSize=22;fontColor=#0069D1;fillColor=#f5f5f5;strokeColor=#666666;" parent="1" vertex="1">
          <mxGeometry x="395" y="130" width="305" height="160" as="geometry" />
        </mxCell>
        <mxCell id="45236fa5f4b8e91a-3" value="物流订单域：&lt;br&gt;&lt;font style=&quot;font-size: 15px&quot; color=&quot;#000000&quot;&gt;待发货的订单进行发货、签收、确认（仓库发货后物流环节的履约）；&lt;/font&gt;" style="ellipse;whiteSpace=wrap;html=1;rounded=0;shadow=0;dashed=0;comic=0;fontFamily=Verdana;fontSize=22;fontColor=#0069D1;fillColor=#f5f5f5;strokeColor=#666666;" parent="1" vertex="1">
          <mxGeometry x="400" y="460" width="300" height="160" as="geometry" />
        </mxCell>
        <mxCell id="64iI4LIjdfQE9EuhD1sA-1" style="edgeStyle=orthogonalEdgeStyle;shape=flexArrow;rounded=0;orthogonalLoop=1;jettySize=auto;html=1;exitX=0.5;exitY=0;exitDx=0;exitDy=0;" edge="1" parent="1" source="45236fa5f4b8e91a-5" target="45236fa5f4b8e91a-1">
          <mxGeometry relative="1" as="geometry" />
        </mxCell>
        <mxCell id="45236fa5f4b8e91a-5" value="营销订单域：&lt;br&gt;&lt;font style=&quot;font-size: 15px&quot; color=&quot;#000000&quot;&gt;解决商品在特定营销规则下能以何种方式完成下单并享受优惠（用户表达购买意向）；&lt;/font&gt;" style="ellipse;whiteSpace=wrap;html=1;rounded=0;shadow=0;dashed=0;comic=0;fontFamily=Verdana;fontSize=22;fontColor=#0069D1;fillColor=#f5f5f5;strokeColor=#666666;" parent="1" vertex="1">
          <mxGeometry x="20" y="280" width="290" height="160" as="geometry" />
        </mxCell>
        <mxCell id="64iI4LIjdfQE9EuhD1sA-4" style="edgeStyle=orthogonalEdgeStyle;shape=flexArrow;rounded=0;orthogonalLoop=1;jettySize=auto;html=1;entryX=1;entryY=0.5;entryDx=0;entryDy=0;" edge="1" parent="1" source="45236fa5f4b8e91a-6" target="45236fa5f4b8e91a-3">
          <mxGeometry relative="1" as="geometry">
            <mxPoint x="885" y="560" as="targetPoint" />
            <Array as="points">
              <mxPoint x="885" y="540" />
            </Array>
          </mxGeometry>
        </mxCell>
        <mxCell id="45236fa5f4b8e91a-6" value="发货订单域：&lt;br&gt;&lt;font style=&quot;font-size: 15px&quot; color=&quot;#000000&quot;&gt;已支付的订单基于规则从特定的仓库进行发货（商户向仓库发起发货请求）；&lt;/font&gt;" style="ellipse;whiteSpace=wrap;html=1;rounded=0;shadow=0;dashed=0;comic=0;fontFamily=Verdana;fontSize=22;fontColor=#0069D1;fillColor=#f5f5f5;strokeColor=#666666;" parent="1" vertex="1">
          <mxGeometry x="740" y="280" width="290" height="160" as="geometry" />
        </mxCell>
      </root>
    </mxGraphModel>
  </diagram>
</mxfile>
